<svg xmlns="http://www.w3.org/2000/svg" width="176" height="64" viewBox="0 0 176 64" fill="none"><path d="M92.1677 21.487C92.2524 21.2606 92.4387 21.0666 92.6589 20.9372C92.8792 20.7917 93.1502 20.727 93.4212 20.727C93.8108 20.7108 94.1835 20.8564 94.4376 21.1313C94.6747 21.3738 94.8103 21.6811 94.8103 22.0045C94.8103 22.1824 94.7594 22.3603 94.6747 22.522C94.59 22.6837 94.5223 22.8455 94.4715 23.0072C94.3698 23.3144 94.1835 23.7996 93.9125 24.4626C93.6414 25.1256 93.2857 26.0151 92.8622 27.1309C92.4387 28.2468 91.8967 29.6375 91.236 31.3032L93.2857 36.6398L99.3162 21.487C99.4009 21.2606 99.5872 21.0666 99.8074 20.9372C100.028 20.7917 100.299 20.727 100.57 20.727C100.942 20.7108 101.315 20.8564 101.569 21.1313C101.806 21.3738 101.942 21.6811 101.959 22.0045C101.959 22.1824 101.908 22.3603 101.823 22.522C101.789 22.5867 101.688 22.8778 101.484 23.3953C101.281 23.9128 100.925 24.8507 100.4 26.193C99.8752 27.5352 99.1806 29.3302 98.2659 31.6266C97.3512 33.923 96.1824 36.8338 94.7594 40.3431C94.6578 40.6341 94.4884 40.8929 94.2513 41.1031C93.9802 41.3134 93.6414 41.4266 93.2857 41.4104C92.913 41.4266 92.5573 41.2972 92.2863 41.0384C92.0661 40.8444 91.8967 40.6018 91.7781 40.3431C91.3885 39.3404 91.0328 38.3863 90.7109 37.4645C90.3891 36.5427 90.0672 35.6857 89.7792 34.8933C89.4574 35.6857 89.1186 36.5427 88.7798 37.4645C88.4241 38.3863 88.0345 39.3566 87.6279 40.3431C87.5263 40.6341 87.3569 40.8929 87.1197 41.1031C86.8487 41.3134 86.5099 41.4266 86.1542 41.4104C85.7815 41.4266 85.4258 41.2972 85.1548 41.0384C84.9345 40.8444 84.7652 40.6018 84.6466 40.3431C83.3931 37.0764 82.3428 34.3111 81.4789 32.0471C80.615 29.783 79.8866 27.9718 79.3445 26.5811C78.8025 25.2065 78.4129 24.2039 78.1757 23.5732C77.9385 22.9425 77.82 22.6191 77.82 22.5867C77.7183 22.4088 77.6845 22.2148 77.6845 22.0045C77.6675 21.6649 77.7861 21.3415 78.0232 21.0828C78.2773 20.8402 78.6331 20.6946 78.9888 20.727C79.2937 20.727 79.5817 20.7917 79.8358 20.9372C80.056 21.0666 80.2423 21.2606 80.327 21.487L86.1372 36.6398L88.2716 31.2708C87.6787 29.7345 87.1706 28.4246 86.7471 27.325C86.3236 26.2253 85.9848 25.3359 85.7138 24.6567C85.4427 23.9613 85.2564 23.4762 85.1378 23.1365C85.0701 22.9587 85.0023 22.7808 84.9684 22.5867C84.8668 22.4088 84.8329 22.1986 84.8329 21.9884C84.816 21.6488 84.9345 21.3253 85.1717 21.0666C85.4258 20.8078 85.7646 20.6785 86.1372 20.7108C86.4422 20.7108 86.7301 20.7755 86.9842 20.921C87.2044 21.0504 87.3908 21.2445 87.4755 21.4709L89.7623 27.6646L92.1677 21.487Z" fill="#1B1B1B"></path><path d="M123.563 37.4086C122.592 38.4898 121.443 39.3935 120.165 40.1197C118.854 40.862 117.382 41.2493 115.877 41.2493C113.174 41.2654 110.569 40.2326 108.627 38.3607C107.672 37.4409 106.928 36.3435 106.41 35.1333C105.86 33.8423 105.585 32.4545 105.601 31.0505C105.601 29.6789 105.86 28.3072 106.394 27.0324C106.895 25.806 107.64 24.6764 108.578 23.7243C109.517 22.7722 110.633 22.0299 111.863 21.5135C113.174 20.9648 114.566 20.6905 115.99 20.7066C117.333 20.7066 118.676 20.9809 119.89 21.5457C121.103 22.0783 122.22 22.8367 123.159 23.7888C124.097 24.7409 124.858 25.8382 125.392 27.0647C125.958 28.3234 126.233 29.6789 126.233 31.0667V40.039C126.266 40.7651 125.683 41.3784 124.955 41.4106C124.227 41.4429 123.612 40.862 123.579 40.1358C123.579 40.1035 123.579 40.0712 123.579 40.039L123.563 37.4086ZM123.563 31.0183C123.563 30.0016 123.369 28.985 122.964 28.0329C122.576 27.1131 122.026 26.2901 121.314 25.58C119.874 24.1438 117.916 23.3531 115.877 23.3531C114.857 23.3531 113.854 23.5467 112.915 23.9502C111.07 24.7248 109.614 26.1932 108.837 28.0329C108.433 28.9688 108.222 29.9855 108.238 31.0183C108.238 32.0349 108.433 33.0354 108.837 33.9714C109.614 35.7949 111.07 37.2634 112.915 38.0379C114.792 38.8287 116.896 38.8287 118.789 38.0702C120.618 37.3118 122.074 35.8756 122.867 34.0682C123.272 33.1 123.515 32.0672 123.563 31.0183Z" fill="#1B1B1B"></path><path d="M142.14 20.7069C143.136 20.6907 144.117 20.8692 145.051 21.2262C145.833 21.5182 146.584 21.9239 147.273 22.4107C147.809 22.7676 148.3 23.222 148.713 23.7412C149.05 24.1793 149.219 24.52 149.219 24.7472C149.219 25.0555 149.081 25.3638 148.851 25.5585C148.637 25.7694 148.346 25.8992 148.039 25.8992C147.702 25.8992 147.38 25.7694 147.151 25.5098C146.461 24.877 145.695 24.3578 144.852 24.0008C143.964 23.6114 143.014 23.4167 142.064 23.4167C141.099 23.4167 140.149 23.6114 139.26 24.017C138.402 24.4065 137.621 24.9581 136.962 25.6721C135.598 27.1162 134.832 29.0795 134.832 31.124C134.832 32.1462 135.016 33.1522 135.399 34.0933C136.134 35.9268 137.529 37.4034 139.26 38.1822C140.149 38.5879 141.099 38.7826 142.064 38.7826C143.014 38.7988 143.964 38.6041 144.852 38.2147C145.71 37.8253 146.476 37.2898 147.151 36.6083C147.38 36.3487 147.702 36.2189 148.039 36.2189C148.361 36.2189 148.667 36.3487 148.912 36.5759C149.158 36.803 149.311 37.1438 149.296 37.5007C149.296 37.7279 149.142 38.0687 148.821 38.5068C148.438 39.026 147.963 39.4641 147.426 39.821C145.818 40.892 143.948 41.4274 142.049 41.4112C140.746 41.4274 139.459 41.1678 138.264 40.6486C137.115 40.1456 136.073 39.4316 135.169 38.5068C134.265 37.5819 133.56 36.4785 133.07 35.2454C132.549 33.9473 132.289 32.5518 132.304 31.1402C132.289 28.4142 133.3 25.8019 135.108 23.8872C135.997 22.9461 137.054 22.1835 138.218 21.6643C139.475 21.0639 140.807 20.7556 142.14 20.7069Z" fill="#1B1B1B"></path><path d="M165.744 20.7059C167.088 20.7059 168.431 20.9818 169.646 21.5497C170.86 22.0852 171.977 22.8479 172.916 23.8052C173.871 24.7626 174.632 25.8823 175.166 27.1155C176.267 29.6631 176.283 32.5514 175.183 35.099C174.648 36.316 173.904 37.4195 172.981 38.3768C171.054 40.3403 168.415 41.4437 165.663 41.4112C162.959 41.4274 160.353 40.3889 158.394 38.5066C157.455 37.5817 156.694 36.4783 156.176 35.2613C155.625 33.9632 155.35 32.5677 155.366 31.1559C155.35 29.7767 155.625 28.4136 156.16 27.1479C156.662 25.9309 157.406 24.8275 158.329 23.8864C159.284 22.9452 160.385 22.1988 161.616 21.6633C162.927 21.0629 164.319 20.7546 165.744 20.7059ZM165.663 23.3996C164.643 23.3996 163.623 23.5943 162.684 24C161.778 24.3894 160.952 24.9411 160.256 25.6389C159.56 26.3528 158.993 27.1804 158.604 28.1053C158.2 29.0465 158.005 30.0687 158.005 31.1073C158.005 32.1295 158.2 33.1356 158.604 34.0767C159.381 35.9104 160.855 37.387 162.684 38.1659C163.623 38.5715 164.627 38.7663 165.647 38.7663C166.667 38.7663 167.687 38.5715 168.642 38.1659C170.488 37.387 171.961 35.9266 172.738 34.0767C173.143 33.1356 173.337 32.1295 173.337 31.1073C173.337 30.085 173.143 29.0627 172.738 28.1053C172.349 27.1804 171.799 26.3528 171.087 25.6389C169.662 24.2109 167.703 23.3996 165.663 23.3996Z" fill="#1B1B1B"></path><path d="M63.1499 25.1258C62.9207 24.8212 62.6781 24.5166 62.4489 24.2119L62.4354 24.1987C61.8826 23.4834 61.3299 22.7815 60.7636 22.0927L60.7367 22.1457L57.1369 17.8013C51.7711 12.0132 45.8929 6.71523 39.5698 1.94702C37.5071 0.649007 35.0399 0 32.5726 0C30.1054 0 27.6382 0.649007 25.5755 1.94702C19.4816 6.54305 13.7921 11.6291 8.58807 17.1788L8.5611 17.2053L7.99486 17.8013C7.99486 17.8146 8.00834 17.8278 8.00834 17.8411L4.38167 22.1192C4.38167 22.106 4.36819 22.106 4.36819 22.0927L3.81542 22.7815C3.19525 23.5497 2.58855 24.3311 1.98186 25.1258C-0.660621 29.1656 -0.660621 34.8344 1.98186 38.8742C8.7903 47.5762 16.7177 55.3642 25.5755 62.053C29.6875 64.649 35.4578 64.649 39.5698 62.053C48.4275 55.3642 56.355 47.5762 63.1634 38.8742C65.8059 34.8344 65.8059 29.1656 63.1499 25.1258Z" fill="#1B1B1B"></path><path d="M26.1821 4.54284C20.3983 8.88721 15.019 13.7481 10.125 19.0329C11.4597 21.5892 12.1203 22.8475 13.4011 25.364C13.4146 25.3905 13.4416 25.417 13.4551 25.4435C16.2728 30.9799 19.0366 36.5428 21.8139 42.1058C22.8655 44.225 24.2137 45.47 25.4271 45.4567C26.5057 45.4435 27.7056 44.4634 28.7302 42.7415C29.7009 44.6223 30.1863 45.5495 31.157 47.4303C29.5661 49.3243 27.5303 50.1852 25.3597 50.2117C21.6656 50.225 18.8614 47.4435 17.4323 44.3309C13.9269 37.1918 10.4216 30.0528 6.82188 22.9534C6.09385 23.8541 5.36582 24.7812 4.65127 25.7216C2.23799 29.4038 2.23799 34.5958 4.65127 38.2779C10.8665 46.225 18.1198 53.3508 26.2091 59.4567C29.9706 61.8276 35.2421 61.8276 38.9901 59.4567C47.0793 53.3508 54.3326 46.225 60.5479 38.2779C62.9611 34.5826 62.9611 29.4038 60.5479 25.7216C59.8333 24.7812 59.1053 23.8541 58.3773 22.9402C54.7641 30.0395 51.2587 37.1786 47.7534 44.3177C46.3243 47.4435 43.5065 50.2117 39.8259 50.1985C36.6577 50.066 34.0152 48.0528 32.4647 45.4303C32.4647 45.4435 32.4513 45.4435 32.4513 45.4567C31.4266 43.4832 30.9143 42.5031 29.9032 40.5428C29.9032 40.5428 29.9032 40.5428 29.9032 40.5296C29.674 40.0793 29.5661 39.8673 29.3369 39.417C29.3099 39.3905 29.2965 39.364 29.2695 39.3243L28.7841 38.3971C27.1663 35.2183 25.5619 32.0395 23.9441 28.8607C22.9869 27.3111 22.4745 25.523 22.4611 23.7084C22.4611 23.6554 22.4611 23.6024 22.4611 23.5495C22.5015 18.119 27.1259 13.8409 32.5861 13.8409C38.1272 13.8409 42.765 18.1985 42.7111 23.7084C42.7111 23.7614 42.7111 23.8011 42.7111 23.8541C42.6707 25.5495 42.1988 27.2051 41.3359 28.6753C39.6642 31.8276 37.9924 34.9799 36.3206 38.1322C35.269 36.1058 34.7432 35.0859 33.7051 33.0594C35.0398 30.4369 35.7139 29.1124 37.0621 26.4899C37.0891 26.4501 37.1161 26.3971 37.1295 26.3574C37.6014 25.5627 37.8441 24.6753 37.8576 23.7481C37.8576 23.7084 37.8576 23.6819 37.8576 23.6422C37.8171 20.8475 35.4578 18.5826 32.5726 18.5826C29.674 18.5561 27.3146 20.8475 27.2876 23.6952C27.2876 23.7084 27.2876 23.7216 27.2876 23.7481C27.2876 23.7879 27.2876 23.8276 27.2876 23.8541C27.3146 24.7812 27.5842 25.6819 28.0831 26.4634C28.1235 26.5296 28.164 26.5958 28.1909 26.6488C29.256 28.715 29.7818 29.7481 30.8334 31.8276L30.8065 31.8409C32.2625 34.662 33.7186 37.47 35.1746 40.2912C35.1746 40.3044 35.1746 40.3044 35.1612 40.3044C35.5252 41.0197 35.7004 41.364 36.0645 42.0793C36.0779 42.0925 36.0914 42.119 36.0914 42.1322C37.17 44.1985 38.5317 45.4303 39.7181 45.4435C40.9315 45.4567 42.2797 44.2117 43.3313 42.1058C47.1737 34.3971 51.0295 26.6753 55.0202 19.0329C50.1262 13.7481 44.7469 8.90046 38.9631 4.54284C37.0891 3.35079 34.8241 2.75476 32.5726 2.75476C30.3211 2.75476 28.0561 3.35079 26.1821 4.54284Z" fill="url(#paint0_linear_93_2848)"></path><defs><linearGradient id="paint0_linear_93_2848" x1="2.84131" y1="32.5078" x2="62.3578" y2="32.5078" gradientUnits="userSpaceOnUse"><stop stop-color="#00FF5D"></stop><stop offset="1" stop-color="#00FFFB"></stop></linearGradient></defs></svg>